<svg width="175" height="76" viewBox="0 0 175 76" fill="none" xmlns="http://www.w3.org/2000/svg">
<path d="M18.408 47.856C16.488 47.856 14.776 46.864 13.272 44.88C11.224 45.488 9.352 45.792 7.656 45.792C5.8 45.792 4.344 45.44 3.288 44.736C2.232 44.064 1.704 43.216 1.704 42.192C1.704 41.392 2.04 40.528 2.712 39.6C3.384 38.672 4.424 37.76 5.832 36.864C6.408 36.512 7.032 36.16 7.704 35.808C8.408 35.456 9.16 35.136 9.96 34.848C9.864 33.824 9.816 32.736 9.816 31.584C9.816 28.96 10.104 26.08 10.68 22.944C11.256 19.776 12.216 16.368 13.56 12.72C11.192 13.904 9.016 15.312 7.032 16.944C5.048 18.544 3.512 20.192 2.424 21.888C2.072 22.464 1.64 22.752 1.128 22.752C0.776 22.752 0.6 22.576 0.6 22.224C0.6 21.968 0.744 21.584 1.032 21.072C1.288 20.56 1.752 19.92 2.424 19.152C3.704 17.68 5.368 16.256 7.416 14.88C9.464 13.504 11.704 12.32 14.136 11.328C14.68 9.824 15.304 8.352 16.008 6.912C16.2 6.496 16.488 6.288 16.872 6.288C17.128 6.288 17.336 6.384 17.496 6.576C17.688 6.736 17.784 6.944 17.784 7.2C17.784 7.328 17.752 7.488 17.688 7.68C17.496 8.128 17.304 8.576 17.112 9.024C16.952 9.472 16.792 9.92 16.632 10.368C17.08 10.208 17.544 10.064 18.024 9.936C18.504 9.808 18.968 9.68 19.416 9.552C21.912 8.976 24.136 8.688 26.088 8.688C28.648 8.688 30.76 9.12 32.424 9.984C34.088 10.848 35.32 12.032 36.12 13.536C36.92 15.008 37.32 16.688 37.32 18.576C37.32 20.528 36.904 22.592 36.072 24.768C35.272 26.944 34.088 29.136 32.52 31.344C30.952 33.52 29 35.584 26.664 37.536C24.36 39.488 21.72 41.216 18.744 42.72C17.176 43.488 15.688 44.112 14.28 44.592C15.048 45.392 15.832 45.952 16.632 46.272C17.432 46.592 18.088 46.752 18.6 46.752C19.048 46.752 19.368 46.656 19.56 46.464C19.848 46.144 20.152 45.984 20.472 45.984C20.696 45.984 20.888 46.048 21.048 46.176C21.208 46.304 21.288 46.448 21.288 46.608C21.288 46.864 21.08 47.104 20.664 47.328C20.28 47.52 19.896 47.648 19.512 47.712C19.128 47.808 18.76 47.856 18.408 47.856ZM13.8 44.016C14.536 43.76 15.304 43.44 16.104 43.056C16.936 42.704 17.784 42.272 18.648 41.76C22.264 39.68 25.256 37.344 27.624 34.752C30.024 32.128 31.816 29.472 33 26.784C34.216 24.096 34.824 21.6 34.824 19.296C34.824 16.544 33.992 14.288 32.328 12.528C30.664 10.736 28.168 9.84 24.84 9.84C23.24 9.84 21.432 10.08 19.416 10.56C18.872 10.688 18.328 10.848 17.784 11.04C17.24 11.2 16.696 11.392 16.152 11.616C14.2 16.736 12.856 21.168 12.12 24.912C11.384 28.624 11.032 31.792 11.064 34.416C12.632 33.872 14.312 33.44 16.104 33.12C17.928 32.8 19.816 32.64 21.768 32.64C22.12 32.64 22.472 32.656 22.824 32.688C23.208 32.688 23.592 32.704 23.976 32.736C24.392 32.768 24.6 32.864 24.6 33.024C24.6 33.28 24.12 33.408 23.16 33.408C22.744 33.408 22.312 33.392 21.864 33.36C21.448 33.328 21.032 33.312 20.616 33.312C18.824 33.312 17.112 33.488 15.48 33.84C13.848 34.192 12.376 34.64 11.064 35.184C11.16 37.328 11.464 39.12 11.976 40.56C12.488 41.968 13.096 43.12 13.8 44.016ZM9 44.88C10.12 44.88 11.4 44.688 12.84 44.304C12.168 43.28 11.576 42.048 11.064 40.608C10.584 39.136 10.232 37.472 10.008 35.616C8.472 36.384 7.224 37.2 6.264 38.064C5.528 38.704 4.984 39.344 4.632 39.984C4.28 40.624 4.104 41.216 4.104 41.76C4.104 42.656 4.536 43.392 5.4 43.968C6.264 44.576 7.464 44.88 9 44.88ZM39.3968 41.616C38.8208 41.616 38.4048 41.376 38.1488 40.896C37.8928 40.384 37.7648 39.792 37.7648 39.12C37.7648 38.256 37.9088 37.248 38.1968 36.096C38.5168 34.944 38.9328 33.76 39.4448 32.544C39.9568 31.296 40.5328 30.16 41.1728 29.136C41.8448 28.08 42.5488 27.232 43.2848 26.592C44.0208 25.92 44.7408 25.584 45.4448 25.584C46.0848 25.584 46.6288 25.872 47.0768 26.448C47.5568 26.992 47.7968 27.616 47.7968 28.32C47.7968 28.736 47.7328 29.088 47.6048 29.376C47.4768 29.632 47.3328 29.76 47.1728 29.76C47.0448 29.76 46.9328 29.664 46.8368 29.472C46.5168 28.736 46.1648 28.208 45.7808 27.888C45.4288 27.568 45.0608 27.408 44.6768 27.408C44.0368 27.408 43.3968 27.776 42.7568 28.512C42.1488 29.216 41.6528 30.032 41.2688 30.96C40.9488 31.664 40.6448 32.512 40.3568 33.504C40.1008 34.464 39.8768 35.424 39.6848 36.384C39.5248 37.312 39.4448 38.08 39.4448 38.688C39.4448 39.776 39.7008 40.32 40.2128 40.32C40.8528 40.32 41.6688 39.616 42.6608 38.208C43.3968 37.184 44.0528 36 44.6288 34.656C45.2368 33.312 45.7488 32.144 46.1648 31.152C46.3248 30.832 46.5008 30.624 46.6928 30.528C46.8848 30.432 47.0608 30.384 47.2208 30.384C47.6048 30.384 47.8448 30.544 47.9408 30.864C48.0688 31.184 48.1328 31.456 48.1328 31.68C48.1328 32.512 48.0528 33.264 47.8928 33.936C47.7328 34.576 47.6528 35.36 47.6528 36.288C47.6528 36.96 47.7008 37.584 47.7968 38.16C47.9248 38.704 48.1328 38.976 48.4208 38.976C48.7728 38.976 49.2208 38.528 49.7648 37.632C49.8928 37.376 50.0848 37.248 50.3408 37.248C50.6288 37.248 50.7728 37.392 50.7728 37.68C50.7728 38.096 50.4848 38.544 49.9088 39.024C49.3328 39.472 48.7568 39.696 48.1808 39.696C47.4128 39.696 46.8688 39.376 46.5488 38.736C46.0048 37.68 45.7328 36.736 45.7328 35.904C45.7328 35.04 45.7168 34.448 45.6848 34.128C45.5248 34.512 45.2208 35.12 44.7728 35.952C44.3248 36.752 43.7968 37.6 43.1888 38.496C42.5808 39.36 41.9408 40.096 41.2688 40.704C40.5968 41.312 39.9728 41.616 39.3968 41.616ZM65.0621 44.736C64.6781 44.736 64.3421 44.64 64.0541 44.448C63.5741 44.096 63.2221 43.68 62.9981 43.2C62.8061 42.752 62.7101 42.24 62.7101 41.664C62.7101 40.736 62.9181 39.712 63.3341 38.592C63.7501 37.472 64.2461 36.352 64.8221 35.232C65.3981 34.08 65.9421 33.024 66.4541 32.064C66.9981 31.104 67.3661 30.304 67.5581 29.664C67.7501 29.088 67.8461 28.656 67.8461 28.368C67.8461 28.048 67.7341 27.888 67.5101 27.888C67.2541 27.888 66.8701 28.096 66.3581 28.512C65.8781 28.896 65.4141 29.328 64.9661 29.808C64.5181 30.288 64.1981 30.64 64.0061 30.864C63.3021 31.632 62.6781 32.56 62.1341 33.648C61.6221 34.736 61.2061 35.808 60.8861 36.864C60.5661 37.92 60.3261 38.784 60.1661 39.456C60.1341 39.616 60.0861 39.904 60.0221 40.32C59.9581 40.736 59.8141 40.928 59.5901 40.896C59.2381 40.832 59.0301 40.576 58.9661 40.128C58.9021 39.648 58.8541 39.264 58.8221 38.976C58.7901 38.72 58.7741 38.48 58.7741 38.256C58.7741 38 58.7741 37.76 58.7741 37.536C58.7741 35.936 58.9181 34.48 59.2061 33.168C59.5261 31.824 59.8301 30.624 60.1181 29.568C60.4061 28.512 60.5501 27.616 60.5501 26.88C60.5501 26.208 60.3741 25.68 60.0221 25.296C59.8941 25.136 59.7181 25.056 59.4941 25.056C59.0781 25.056 58.5981 25.392 58.0541 26.064C57.5421 26.736 57.0461 27.632 56.5661 28.752C56.1181 29.84 55.7341 31.04 55.4141 32.352C55.1261 33.664 54.9821 34.976 54.9821 36.288C54.9821 36.576 54.9821 36.864 54.9821 37.152C55.0141 37.44 55.0461 37.712 55.0781 37.968C55.1101 38.192 55.1581 38.56 55.2221 39.072C55.2861 39.552 55.3181 40 55.3181 40.416C55.3181 40.832 55.2701 41.136 55.1741 41.328L55.1261 41.376C54.8701 41.536 54.6141 41.616 54.3581 41.616C54.0381 41.616 53.7821 41.504 53.5901 41.28C53.3341 40.928 53.1421 40.48 53.0141 39.936C52.9181 39.392 52.8381 38.896 52.7741 38.448C52.6461 37.552 52.5181 36.48 52.3901 35.232C52.2621 33.952 52.1181 32.688 51.9581 31.44C51.8301 30.16 51.6381 29.104 51.3821 28.272C51.2541 27.824 51.0941 27.376 50.9021 26.928C50.7101 26.448 50.3901 26.096 49.9421 25.872C49.9101 25.84 49.8941 25.792 49.8941 25.728C49.8941 25.632 50.0061 25.568 50.2301 25.536C50.4861 25.504 50.6461 25.52 50.7101 25.584C51.1901 25.712 51.6221 26.16 52.0061 26.928C52.3901 27.696 52.7101 28.592 52.9661 29.616C53.2541 30.608 53.4941 31.568 53.6861 32.496C53.9101 33.424 54.0861 34.112 54.2141 34.56C54.3101 33.984 54.4061 33.408 54.5021 32.832C54.5981 32.256 54.7101 31.68 54.8381 31.104C55.1261 29.952 55.4621 28.832 55.8461 27.744C56.2301 26.624 56.7741 25.68 57.4781 24.912C58.2141 24.112 59.1901 23.632 60.4061 23.472C60.8541 23.408 61.3821 23.616 61.9901 24.096C62.5981 24.576 62.9021 25.312 62.9021 26.304C62.9021 26.432 62.8861 26.576 62.8541 26.736C62.8541 26.864 62.8381 27.008 62.8061 27.168C62.7741 27.328 62.6141 27.824 62.3261 28.656C62.0701 29.488 61.7661 30.464 61.4141 31.584C61.0621 32.672 60.7581 33.728 60.5021 34.752C61.1741 33.536 61.9581 32.336 62.8541 31.152C63.7821 29.936 64.7261 28.928 65.6861 28.128C65.9421 27.872 66.3581 27.616 66.9341 27.36C67.5421 27.104 68.1021 26.976 68.6141 26.976C68.9661 26.976 69.2541 27.072 69.4781 27.264C69.7341 27.456 69.8621 27.792 69.8621 28.272C69.8621 28.368 69.8621 28.48 69.8621 28.608C69.8621 28.704 69.8461 28.816 69.8141 28.944C69.6221 29.904 69.2221 31.008 68.6141 32.256C68.0061 33.472 67.3501 34.72 66.6461 36C65.9741 37.28 65.3981 38.464 64.9181 39.552C64.4701 40.608 64.3101 41.472 64.4381 42.144C64.5661 42.688 64.7741 43.072 65.0621 43.296C65.3821 43.52 65.7021 43.632 66.0221 43.632C66.4701 43.632 66.8061 43.52 67.0301 43.296C67.0941 43.232 67.1901 43.136 67.3181 43.008C67.4781 42.912 67.6061 42.848 67.7021 42.816C67.7981 42.816 67.7981 42.96 67.7021 43.248C67.6701 43.376 67.5741 43.504 67.4141 43.632C67.2541 43.792 67.1421 43.904 67.0781 43.968C66.4701 44.48 65.7981 44.736 65.0621 44.736ZM72.1155 41.616C71.5395 41.616 71.1235 41.376 70.8675 40.896C70.6115 40.384 70.4835 39.792 70.4835 39.12C70.4835 38.256 70.6275 37.248 70.9155 36.096C71.2355 34.944 71.6515 33.76 72.1635 32.544C72.6755 31.296 73.2515 30.16 73.8915 29.136C74.5635 28.08 75.2675 27.232 76.0035 26.592C76.7395 25.92 77.4595 25.584 78.1635 25.584C78.8035 25.584 79.3475 25.872 79.7955 26.448C80.2755 26.992 80.5155 27.616 80.5155 28.32C80.5155 28.736 80.4515 29.088 80.3235 29.376C80.1955 29.632 80.0515 29.76 79.8915 29.76C79.7635 29.76 79.6515 29.664 79.5555 29.472C79.2355 28.736 78.8835 28.208 78.4995 27.888C78.1475 27.568 77.7795 27.408 77.3955 27.408C76.7555 27.408 76.1155 27.776 75.4755 28.512C74.8675 29.216 74.3715 30.032 73.9875 30.96C73.6675 31.664 73.3635 32.512 73.0755 33.504C72.8195 34.464 72.5955 35.424 72.4035 36.384C72.2435 37.312 72.1635 38.08 72.1635 38.688C72.1635 39.776 72.4195 40.32 72.9315 40.32C73.5715 40.32 74.3875 39.616 75.3795 38.208C76.1155 37.184 76.7715 36 77.3475 34.656C77.9555 33.312 78.4675 32.144 78.8835 31.152C79.0435 30.832 79.2195 30.624 79.4115 30.528C79.6035 30.432 79.7795 30.384 79.9395 30.384C80.3235 30.384 80.5635 30.544 80.6595 30.864C80.7875 31.184 80.8515 31.456 80.8515 31.68C80.8515 32.512 80.7715 33.264 80.6115 33.936C80.4515 34.576 80.3715 35.36 80.3715 36.288C80.3715 36.96 80.4195 37.584 80.5155 38.16C80.6435 38.704 80.8515 38.976 81.1395 38.976C81.4915 38.976 81.9395 38.528 82.4835 37.632C82.6115 37.376 82.8035 37.248 83.0595 37.248C83.3475 37.248 83.4915 37.392 83.4915 37.68C83.4915 38.096 83.2035 38.544 82.6275 39.024C82.0515 39.472 81.4755 39.696 80.8995 39.696C80.1315 39.696 79.5875 39.376 79.2675 38.736C78.7235 37.68 78.4515 36.736 78.4515 35.904C78.4515 35.04 78.4355 34.448 78.4035 34.128C78.2435 34.512 77.9395 35.12 77.4915 35.952C77.0435 36.752 76.5155 37.6 75.9075 38.496C75.2995 39.36 74.6595 40.096 73.9875 40.704C73.3155 41.312 72.6915 41.616 72.1155 41.616Z" fill="#542020"/>
<path d="M97.2049 47.856C95.2849 47.856 93.5729 46.864 92.0689 44.88C90.0209 45.488 88.1489 45.792 86.4529 45.792C84.5969 45.792 83.1409 45.44 82.0849 44.736C81.0289 44.064 80.5009 43.216 80.5009 42.192C80.5009 41.392 80.8369 40.528 81.5089 39.6C82.1809 38.672 83.2209 37.76 84.6289 36.864C85.2049 36.512 85.8289 36.16 86.5009 35.808C87.2049 35.456 87.9569 35.136 88.7569 34.848C88.6609 33.824 88.6129 32.736 88.6129 31.584C88.6129 28.96 88.9009 26.08 89.4769 22.944C90.0529 19.776 91.0129 16.368 92.3569 12.72C89.9889 13.904 87.8129 15.312 85.8289 16.944C83.8449 18.544 82.3089 20.192 81.2209 21.888C80.8689 22.464 80.4369 22.752 79.9249 22.752C79.5729 22.752 79.3969 22.576 79.3969 22.224C79.3969 21.968 79.5409 21.584 79.8289 21.072C80.0849 20.56 80.5489 19.92 81.2209 19.152C82.5009 17.68 84.1649 16.256 86.2129 14.88C88.2609 13.504 90.5009 12.32 92.9329 11.328C93.4769 9.824 94.1009 8.352 94.8049 6.912C94.9969 6.496 95.2849 6.288 95.6689 6.288C95.9249 6.288 96.1329 6.384 96.2929 6.576C96.4849 6.736 96.5809 6.944 96.5809 7.2C96.5809 7.328 96.5489 7.488 96.4849 7.68C96.2929 8.128 96.1009 8.576 95.9089 9.024C95.7489 9.472 95.5889 9.92 95.4289 10.368C95.8769 10.208 96.3409 10.064 96.8209 9.936C97.3009 9.808 97.7649 9.68 98.2129 9.552C100.709 8.976 102.933 8.688 104.885 8.688C107.445 8.688 109.557 9.12 111.221 9.984C112.885 10.848 114.117 12.032 114.917 13.536C115.717 15.008 116.117 16.688 116.117 18.576C116.117 20.528 115.701 22.592 114.869 24.768C114.069 26.944 112.885 29.136 111.317 31.344C109.749 33.52 107.797 35.584 105.461 37.536C103.157 39.488 100.517 41.216 97.5409 42.72C95.9729 43.488 94.4849 44.112 93.0769 44.592C93.8449 45.392 94.6289 45.952 95.4289 46.272C96.2289 46.592 96.8849 46.752 97.3969 46.752C97.8449 46.752 98.1649 46.656 98.3569 46.464C98.6449 46.144 98.9489 45.984 99.2689 45.984C99.4929 45.984 99.6849 46.048 99.8449 46.176C100.005 46.304 100.085 46.448 100.085 46.608C100.085 46.864 99.8769 47.104 99.4609 47.328C99.0769 47.52 98.6929 47.648 98.3089 47.712C97.9249 47.808 97.5569 47.856 97.2049 47.856ZM92.5969 44.016C93.3329 43.76 94.1009 43.44 94.9009 43.056C95.7329 42.704 96.5809 42.272 97.4449 41.76C101.061 39.68 104.053 37.344 106.421 34.752C108.821 32.128 110.613 29.472 111.797 26.784C113.013 24.096 113.621 21.6 113.621 19.296C113.621 16.544 112.789 14.288 111.125 12.528C109.461 10.736 106.965 9.84 103.637 9.84C102.037 9.84 100.229 10.08 98.2129 10.56C97.6689 10.688 97.1249 10.848 96.5809 11.04C96.0369 11.2 95.4929 11.392 94.9489 11.616C92.9969 16.736 91.6529 21.168 90.9169 24.912C90.1809 28.624 89.8289 31.792 89.8609 34.416C91.4289 33.872 93.1089 33.44 94.9009 33.12C96.7249 32.8 98.6129 32.64 100.565 32.64C100.917 32.64 101.269 32.656 101.621 32.688C102.005 32.688 102.389 32.704 102.773 32.736C103.189 32.768 103.397 32.864 103.397 33.024C103.397 33.28 102.917 33.408 101.957 33.408C101.541 33.408 101.109 33.392 100.661 33.36C100.245 33.328 99.8289 33.312 99.4129 33.312C97.6209 33.312 95.9089 33.488 94.2769 33.84C92.6449 34.192 91.1729 34.64 89.8609 35.184C89.9569 37.328 90.2609 39.12 90.7729 40.56C91.2849 41.968 91.8929 43.12 92.5969 44.016ZM87.7969 44.88C88.9169 44.88 90.1969 44.688 91.6369 44.304C90.9649 43.28 90.3729 42.048 89.8609 40.608C89.3809 39.136 89.0289 37.472 88.8049 35.616C87.2689 36.384 86.0209 37.2 85.0609 38.064C84.3249 38.704 83.7809 39.344 83.4289 39.984C83.0769 40.624 82.9009 41.216 82.9009 41.76C82.9009 42.656 83.3329 43.392 84.1969 43.968C85.0609 44.576 86.2609 44.88 87.7969 44.88ZM117.426 41.616C116.914 41.616 116.482 41.344 116.13 40.8C115.874 40.352 115.746 39.824 115.746 39.216C115.746 38.352 115.938 37.376 116.322 36.288C116.706 35.2 117.218 34.144 117.858 33.12C118.53 32.096 119.266 31.232 120.066 30.528C120.898 29.792 121.746 29.36 122.61 29.232C122.93 29.2 123.314 29.28 123.762 29.472C124.21 29.664 124.578 29.904 124.866 30.192C124.93 29.872 124.978 29.568 125.01 29.28C125.042 28.96 125.058 28.656 125.058 28.368C125.058 27.472 124.914 26.672 124.626 25.968C124.338 25.264 123.826 24.8 123.09 24.576C122.802 24.48 122.482 24.432 122.13 24.432C121.938 24.432 121.73 24.464 121.506 24.528C121.282 24.56 121.042 24.656 120.786 24.816C120.53 24.944 120.274 25.152 120.018 25.44C119.762 25.696 119.586 25.936 119.49 26.16C119.426 26.288 119.266 26.576 119.01 27.024C118.754 27.44 118.546 27.632 118.386 27.6C118.258 27.568 118.194 27.456 118.194 27.264C118.194 27.168 118.226 27.024 118.29 26.832C118.482 26.224 118.85 25.712 119.394 25.296C119.938 24.848 120.53 24.496 121.17 24.24C121.81 23.952 122.338 23.792 122.754 23.76C122.85 23.76 122.946 23.76 123.042 23.76C123.138 23.728 123.218 23.712 123.282 23.712C123.794 23.712 124.258 23.792 124.674 23.952C125.122 24.08 125.474 24.256 125.73 24.48C126.146 24.8 126.482 25.216 126.738 25.728C126.994 26.208 127.122 26.816 127.122 27.552C127.122 27.776 127.106 28.016 127.074 28.272C127.042 28.528 126.994 28.784 126.93 29.04C126.834 29.552 126.706 30.208 126.546 31.008C126.418 31.776 126.274 32.576 126.114 33.408C125.986 34.24 125.874 35.008 125.778 35.712C125.714 36.384 125.682 36.864 125.682 37.152C125.682 37.472 125.778 37.84 125.97 38.256C126.194 38.64 126.482 38.832 126.834 38.832C127.026 38.832 127.234 38.736 127.458 38.544C127.714 38.352 127.97 38.032 128.226 37.584C128.386 37.328 128.53 37.2 128.658 37.2C128.818 37.2 128.898 37.296 128.898 37.488C128.898 37.744 128.77 38.048 128.514 38.4C127.906 39.264 127.138 39.696 126.21 39.696C125.442 39.696 124.898 39.376 124.578 38.736C124.034 37.68 123.762 36.736 123.762 35.904C123.762 35.04 123.746 34.448 123.714 34.128C123.554 34.512 123.25 35.12 122.802 35.952C122.354 36.752 121.826 37.6 121.218 38.496C120.61 39.36 119.97 40.096 119.298 40.704C118.626 41.312 118.002 41.616 117.426 41.616ZM118.194 40.176C118.514 40.176 118.882 40.016 119.298 39.696C119.746 39.376 120.21 38.88 120.69 38.208C121.33 37.28 121.922 36.24 122.466 35.088C123.01 33.936 123.506 32.816 123.954 31.728C123.57 30.8 123.09 30.336 122.514 30.336C122.002 30.336 121.458 30.608 120.882 31.152C120.306 31.696 119.762 32.32 119.25 33.024C118.61 33.984 118.098 34.944 117.714 35.904C117.362 36.864 117.186 37.68 117.186 38.352C117.186 39.568 117.522 40.176 118.194 40.176ZM140.948 50.4C140.244 50.4 139.7 50.096 139.316 49.488C138.964 48.88 138.788 48.176 138.788 47.376C138.788 46.416 138.964 45.312 139.316 44.064C139.668 42.848 140.116 41.6 140.66 40.32C141.204 39.008 141.764 37.744 142.34 36.528C142.948 35.312 143.476 34.224 143.924 33.264C144.404 32.304 144.724 31.568 144.884 31.056C145.076 30.48 145.172 30.048 145.172 29.76C145.172 29.44 145.06 29.28 144.836 29.28C144.58 29.28 144.196 29.488 143.684 29.904C143.204 30.288 142.74 30.72 142.292 31.2C141.844 31.68 141.524 32.032 141.332 32.256C140.276 33.408 139.348 34.688 138.548 36.096C137.748 37.504 137.236 38.704 137.012 39.696C136.98 39.856 136.932 40.144 136.868 40.56C136.804 40.944 136.66 41.136 136.436 41.136C136.212 41.136 136.036 41.024 135.908 40.8C135.812 40.576 135.748 40.336 135.716 40.08C135.684 39.92 135.652 39.616 135.62 39.168C135.62 38.688 135.62 38.336 135.62 38.112C135.62 36.736 135.764 35.36 136.052 33.984C136.34 32.576 136.66 31.232 137.012 29.952C137.396 28.64 137.732 27.44 138.02 26.352C138.308 25.264 138.452 24.336 138.452 23.568C138.452 23.056 138.356 22.64 138.164 22.32C138.004 21.968 137.796 21.792 137.54 21.792C137.156 21.792 136.708 22.112 136.196 22.752C135.716 23.392 135.22 24.256 134.708 25.344C134.196 26.432 133.716 27.632 133.268 28.944C132.852 30.256 132.5 31.584 132.212 32.928C131.956 34.272 131.828 35.536 131.828 36.72C131.828 37.392 131.876 38.08 131.972 38.784C132.1 39.488 132.164 40.112 132.164 40.656C132.164 41.072 132.1 41.376 131.972 41.568C131.876 41.76 131.62 41.856 131.204 41.856C130.436 41.856 129.956 41.104 129.764 39.6C129.54 38.288 129.3 36.8 129.044 35.136C128.82 33.472 128.532 32 128.18 30.72C128.084 30.368 127.972 30 127.844 29.616C127.716 29.232 127.476 28.88 127.124 28.56C127.092 28.496 127.012 28.432 126.884 28.368C126.756 28.304 126.692 28.24 126.692 28.176C126.692 28.048 126.868 27.984 127.22 27.984C127.7 27.984 128.148 28.256 128.564 28.8C128.98 29.312 129.348 29.952 129.668 30.72C129.988 31.488 130.26 32.256 130.484 33.024C130.74 33.76 130.932 34.352 131.06 34.8C131.348 33.04 131.668 31.44 132.02 30C132.372 28.528 132.82 27.104 133.364 25.728C133.748 24.8 134.196 23.904 134.708 23.04C135.22 22.176 135.796 21.472 136.436 20.928C137.076 20.352 137.748 20.064 138.452 20.064C138.9 20.064 139.428 20.304 140.036 20.784C140.676 21.264 140.996 22.032 140.996 23.088C140.996 23.568 140.868 24.144 140.612 24.816C140.388 25.456 140.132 26.176 139.844 26.976C139.428 28.096 138.98 29.36 138.5 30.768C138.02 32.144 137.604 33.408 137.252 34.56C136.9 35.712 136.692 36.512 136.628 36.96C136.564 37.472 136.516 37.904 136.484 38.256C136.484 38.576 136.484 38.88 136.484 39.168C136.676 38.336 137.092 37.376 137.732 36.288C138.404 35.168 139.012 34.224 139.556 33.456C140.164 32.592 140.804 31.776 141.476 31.008C142.18 30.208 142.9 29.568 143.636 29.088C144.404 28.576 145.156 28.32 145.892 28.32C146.244 28.32 146.548 28.416 146.804 28.608C147.06 28.8 147.188 29.168 147.188 29.712C147.188 30.448 146.948 31.296 146.468 32.256C146.02 33.184 145.46 34.144 144.788 35.136C144.148 36.096 143.556 37.04 143.012 37.968C142.308 39.184 141.652 40.496 141.044 41.904C140.468 43.28 140.18 44.704 140.18 46.176C140.18 47.392 140.324 48.272 140.612 48.816C140.932 49.36 141.268 49.632 141.62 49.632C141.844 49.632 142.068 49.552 142.292 49.392C142.548 49.232 142.756 49.088 142.916 48.96C142.98 48.896 143.076 48.8 143.204 48.672C143.332 48.576 143.444 48.528 143.54 48.528C143.668 48.528 143.684 48.656 143.588 48.912C143.556 49.04 143.46 49.168 143.3 49.296C143.14 49.456 143.028 49.568 142.964 49.632C142.356 50.144 141.684 50.4 140.948 50.4ZM152.257 25.968C151.969 25.968 151.761 25.824 151.633 25.536C151.537 25.216 151.489 24.992 151.489 24.864C151.489 24.352 151.633 23.872 151.921 23.424C152.241 22.944 152.593 22.688 152.977 22.656H153.121C153.505 22.656 153.761 22.752 153.889 22.944C154.049 23.104 154.129 23.312 154.129 23.568C154.129 24.048 153.921 24.576 153.505 25.152C153.089 25.696 152.673 25.968 152.257 25.968ZM149.809 43.152C148.721 43.152 147.985 42.736 147.601 41.904C147.217 41.072 147.025 40.112 147.025 39.024C147.025 37.936 147.137 36.8 147.361 35.616C147.617 34.4 147.889 33.296 148.177 32.304C148.497 31.312 148.737 30.608 148.897 30.192C149.249 29.456 149.601 28.832 149.953 28.32C150.305 27.776 150.689 27.504 151.105 27.504C151.393 27.504 151.601 27.616 151.729 27.84C151.889 28.032 151.969 28.288 151.969 28.608C151.969 29.248 151.793 29.904 151.441 30.576C151.089 31.216 150.769 31.824 150.481 32.4C149.841 33.712 149.329 34.88 148.945 35.904C148.593 36.928 148.417 38.208 148.417 39.744C148.417 40.736 148.513 41.456 148.705 41.904C148.929 42.352 149.233 42.576 149.617 42.576C150.129 42.576 150.721 42.288 151.393 41.712C152.065 41.104 152.753 40.304 153.457 39.312C154.161 38.32 154.785 37.248 155.329 36.096C155.681 35.36 155.953 34.992 156.145 34.992C156.273 34.992 156.337 35.12 156.337 35.376C156.337 35.728 156.193 36.24 155.905 36.912C155.649 37.552 155.329 38.208 154.945 38.88C154.593 39.552 154.257 40.08 153.937 40.464C153.393 41.168 152.769 41.792 152.065 42.336C151.361 42.88 150.609 43.152 149.809 43.152Z" fill="#F96A2E"/>
<path d="M137.376 61.504C137.208 61.576 137.016 61.48 136.8 61.216C136.608 60.952 136.512 60.688 136.512 60.424C136.512 60.184 136.608 59.98 136.8 59.812C136.992 59.644 137.112 59.548 137.16 59.524C137.256 59.404 137.472 59.248 137.808 59.056C138.168 58.84 138.504 58.66 138.816 58.516C139.152 58.372 139.332 58.348 139.356 58.444C139.404 58.54 139.368 58.624 139.248 58.696C139.152 58.744 139.02 58.888 138.852 59.128C138.684 59.344 138.516 59.752 138.348 60.352C138.276 60.568 138.18 60.784 138.06 61C137.94 61.192 137.712 61.36 137.376 61.504ZM143.571 61.72C142.971 61.72 142.443 61.504 141.987 61.072C141.555 60.664 141.339 59.956 141.339 58.948C141.339 58.42 141.447 57.772 141.663 57.004C141.879 56.212 142.167 55.384 142.527 54.52C142.911 53.656 143.343 52.852 143.823 52.108C144.303 51.364 144.807 50.752 145.335 50.272C145.863 49.792 146.379 49.552 146.883 49.552C147.291 49.552 147.579 49.696 147.747 49.984C147.939 50.272 148.035 50.584 148.035 50.92C148.035 51.208 147.975 51.472 147.855 51.712C147.759 51.928 147.615 52.036 147.423 52.036C147.231 52.036 147.087 51.952 146.991 51.784C146.919 51.592 146.847 51.412 146.775 51.244C146.727 51.052 146.595 50.956 146.379 50.956C145.947 50.956 145.515 51.244 145.083 51.82C144.651 52.372 144.255 53.08 143.895 53.944C143.535 54.808 143.247 55.696 143.031 56.608C142.815 57.52 142.707 58.324 142.707 59.02C142.707 59.62 142.779 60.064 142.923 60.352C143.091 60.616 143.391 60.748 143.823 60.748C144.375 60.748 144.903 60.592 145.407 60.28C145.935 59.944 146.415 59.536 146.847 59.056C147.279 58.576 147.639 58.12 147.927 57.688C148.239 57.256 148.455 56.932 148.575 56.716C148.863 56.164 149.091 55.888 149.259 55.888C149.331 55.888 149.367 55.984 149.367 56.176C149.367 56.416 149.319 56.656 149.223 56.896C149.127 57.112 149.031 57.316 148.935 57.508C148.599 58.228 148.143 58.912 147.567 59.56C146.991 60.184 146.355 60.7 145.659 61.108C144.987 61.516 144.291 61.72 143.571 61.72ZM151.297 61.684C150.649 61.684 150.061 61.456 149.533 61C149.149 60.664 148.873 60.268 148.705 59.812C148.537 59.356 148.453 58.864 148.453 58.336C148.453 57.928 148.489 57.52 148.561 57.112C148.657 56.68 148.765 56.272 148.885 55.888C149.053 55.36 149.269 54.88 149.533 54.448C149.797 54.016 150.025 53.68 150.217 53.44C150.337 52.888 150.565 52.24 150.901 51.496C151.237 50.752 151.645 50.032 152.125 49.336C152.629 48.64 153.193 48.064 153.817 47.608C154.441 47.128 155.089 46.888 155.761 46.888C156.553 46.888 157.237 47.248 157.813 47.968C158.413 48.664 158.761 49.696 158.857 51.064C158.857 51.16 158.857 51.256 158.857 51.352C158.881 51.448 158.893 51.556 158.893 51.676C158.893 53.044 158.557 54.412 157.885 55.78C157.237 57.124 156.457 58.276 155.545 59.236C155.017 59.812 154.369 60.364 153.601 60.892C152.833 61.42 152.065 61.684 151.297 61.684ZM151.477 60.928C152.125 60.928 152.821 60.628 153.565 60.028C154.405 59.356 155.125 58.504 155.725 57.472C156.325 56.44 156.793 55.348 157.129 54.196C157.489 53.02 157.705 51.88 157.777 50.776C157.825 50.152 157.741 49.552 157.525 48.976C157.309 48.4 156.853 48.028 156.157 47.86C155.965 47.812 155.809 47.788 155.689 47.788C155.233 47.788 154.765 47.932 154.285 48.22C153.829 48.508 153.409 48.868 153.025 49.3C152.665 49.732 152.377 50.164 152.161 50.596C151.969 51.004 151.885 51.34 151.909 51.604C152.053 51.46 152.293 51.256 152.629 50.992C152.989 50.704 153.385 50.44 153.817 50.2C154.249 49.96 154.621 49.84 154.933 49.84C155.173 49.84 155.341 49.912 155.437 50.056C155.509 50.104 155.521 50.2 155.473 50.344C155.161 50.248 154.801 50.308 154.393 50.524C154.009 50.74 153.613 51.04 153.205 51.424C152.821 51.808 152.473 52.192 152.161 52.576C151.849 52.96 151.621 53.26 151.477 53.476C151.381 53.572 151.273 53.692 151.153 53.836C151.057 53.98 150.997 54.136 150.973 54.304C150.949 54.352 150.937 54.46 150.937 54.628C150.937 54.94 151.033 55.324 151.225 55.78C151.441 56.236 151.825 56.644 152.377 57.004C152.929 57.364 153.697 57.568 154.681 57.616C154.705 57.64 154.717 57.664 154.717 57.688C154.717 57.784 154.621 57.856 154.429 57.904C154.261 57.928 154.153 57.94 154.105 57.94C154.033 57.964 153.961 57.976 153.889 57.976C153.817 57.976 153.745 57.976 153.673 57.976C152.857 57.976 152.185 57.676 151.657 57.076C151.129 56.452 150.733 55.768 150.469 55.024C149.869 56.32 149.569 57.46 149.569 58.444C149.569 59.236 149.749 59.848 150.109 60.28C150.469 60.712 150.925 60.928 151.477 60.928ZM169.344 67.3C168.816 67.3 168.408 67.072 168.12 66.616C167.856 66.16 167.724 65.632 167.724 65.032C167.724 64.312 167.856 63.484 168.12 62.548C168.384 61.636 168.72 60.7 169.128 59.74C169.536 58.756 169.956 57.808 170.388 56.896C170.844 55.984 171.24 55.168 171.576 54.448C171.936 53.728 172.176 53.176 172.296 52.792C172.44 52.36 172.512 52.036 172.512 51.82C172.512 51.58 172.428 51.46 172.26 51.46C172.068 51.46 171.78 51.616 171.396 51.928C171.036 52.216 170.688 52.54 170.352 52.9C170.016 53.26 169.776 53.524 169.632 53.692C168.84 54.556 168.144 55.516 167.544 56.572C166.944 57.628 166.56 58.528 166.392 59.272C166.368 59.392 166.332 59.608 166.284 59.92C166.236 60.208 166.128 60.352 165.96 60.352C165.792 60.352 165.66 60.268 165.564 60.1C165.492 59.932 165.444 59.752 165.42 59.56C165.396 59.44 165.372 59.212 165.348 58.876C165.348 58.516 165.348 58.252 165.348 58.084C165.348 57.052 165.456 56.02 165.672 54.988C165.888 53.932 166.128 52.924 166.392 51.964C166.68 50.98 166.932 50.08 167.148 49.264C167.364 48.448 167.472 47.752 167.472 47.176C167.472 46.792 167.4 46.48 167.256 46.24C167.136 45.976 166.98 45.844 166.788 45.844C166.5 45.844 166.164 46.084 165.78 46.564C165.42 47.044 165.048 47.692 164.664 48.508C164.28 49.324 163.92 50.224 163.584 51.208C163.272 52.192 163.008 53.188 162.792 54.196C162.6 55.204 162.504 56.152 162.504 57.04C162.504 57.544 162.54 58.06 162.612 58.588C162.708 59.116 162.756 59.584 162.756 59.992C162.756 60.304 162.708 60.532 162.612 60.676C162.54 60.82 162.348 60.892 162.036 60.892C161.46 60.892 161.1 60.328 160.956 59.2C160.788 58.216 160.608 57.1 160.416 55.852C160.248 54.604 160.032 53.5 159.768 52.54C159.696 52.276 159.612 52 159.516 51.712C159.42 51.424 159.24 51.16 158.976 50.92C158.952 50.872 158.892 50.824 158.796 50.776C158.7 50.728 158.652 50.68 158.652 50.632C158.652 50.536 158.784 50.488 159.048 50.488C159.408 50.488 159.744 50.692 160.056 51.1C160.368 51.484 160.644 51.964 160.884 52.54C161.124 53.116 161.328 53.692 161.496 54.268C161.688 54.82 161.832 55.264 161.928 55.6C162.144 54.28 162.384 53.08 162.648 52C162.912 50.896 163.248 49.828 163.656 48.796C163.944 48.1 164.28 47.428 164.664 46.78C165.048 46.132 165.48 45.604 165.96 45.196C166.44 44.764 166.944 44.548 167.472 44.548C167.808 44.548 168.204 44.728 168.66 45.088C169.14 45.448 169.38 46.024 169.38 46.816C169.38 47.176 169.284 47.608 169.092 48.112C168.924 48.592 168.732 49.132 168.516 49.732C168.204 50.572 167.868 51.52 167.508 52.576C167.148 53.608 166.836 54.556 166.572 55.42C166.308 56.284 166.152 56.884 166.104 57.22C166.056 57.604 166.02 57.928 165.996 58.192C165.996 58.432 165.996 58.66 165.996 58.876C166.14 58.252 166.452 57.532 166.932 56.716C167.436 55.876 167.892 55.168 168.3 54.592C168.756 53.944 169.236 53.332 169.74 52.756C170.268 52.156 170.808 51.676 171.36 51.316C171.936 50.932 172.5 50.74 173.052 50.74C173.316 50.74 173.544 50.812 173.736 50.956C173.928 51.1 174.024 51.376 174.024 51.784C174.024 52.336 173.844 52.972 173.484 53.692C173.148 54.388 172.728 55.108 172.224 55.852C171.744 56.572 171.3 57.28 170.892 57.976C170.364 58.888 169.872 59.872 169.416 60.928C168.984 61.96 168.768 63.028 168.768 64.132C168.768 65.044 168.876 65.704 169.092 66.112C169.332 66.52 169.584 66.724 169.848 66.724C170.016 66.724 170.184 66.664 170.352 66.544C170.544 66.424 170.7 66.316 170.82 66.22C170.868 66.172 170.94 66.1 171.036 66.004C171.132 65.932 171.216 65.896 171.288 65.896C171.384 65.896 171.396 65.992 171.324 66.184C171.3 66.28 171.228 66.376 171.108 66.472C170.988 66.592 170.904 66.676 170.856 66.724C170.4 67.108 169.896 67.3 169.344 67.3Z" fill="#5B5757"/>
</svg>
